<?xml version="1.0" encoding="utf-8"?>
<!-- Generator: Adobe Illustrator 16.0.3, SVG Export Plug-In . SVG Version: 6.00 Build 0)  -->
<!DOCTYPE svg PUBLIC "-//W3C//DTD SVG 1.1//EN" "http://www.w3.org/Graphics/SVG/1.1/DTD/svg11.dtd">
<svg version="1.1"
	 id="Layer_1" xmlns:sodipodi="http://sodipodi.sourceforge.net/DTD/sodipodi-0.dtd" xmlns:inkscape="http://www.inkscape.org/namespaces/inkscape"
	 xmlns="http://www.w3.org/2000/svg" xmlns:xlink="http://www.w3.org/1999/xlink" x="0px" y="0px" width="410.4px" height="410.4px"
	 viewBox="0 0 410.4 410.4" enable-background="new 0 0 410.4 410.4" xml:space="preserve">
<g>
	<path fill="#FFFFFF" d="M205.2,409.9C92.328,409.9,0.5,318.072,0.5,205.2S92.328,0.5,205.2,0.5c112.871,0,204.7,91.828,204.7,204.7
		S318.071,409.9,205.2,409.9z"/>
	<path d="M205.2,1c27.566,0,54.31,5.399,79.482,16.046C309,27.332,330.838,42.055,349.592,60.809
		c18.755,18.754,33.478,40.592,43.763,64.908c10.647,25.174,16.047,51.917,16.047,79.484s-5.398,54.31-16.047,79.483
		c-10.285,24.315-25.008,46.153-43.763,64.907c-18.754,18.754-40.592,33.478-64.907,43.762
		C259.51,404.002,232.769,409.4,205.2,409.4s-54.31-5.398-79.484-16.048c-24.316-10.283-46.154-25.008-64.908-43.762
		C42.055,330.838,27.332,309,17.046,284.685C6.399,259.51,1,232.769,1,205.2s5.399-54.31,16.046-79.484
		C27.332,101.4,42.055,79.563,60.809,60.809c18.754-18.753,40.592-33.477,64.908-43.762C150.891,6.399,177.633,1,205.2,1 M205.2,0
		C91.871,0,0,91.871,0,205.2s91.871,205.2,205.2,205.2c113.328,0,205.2-91.871,205.2-205.2S318.528,0,205.2,0L205.2,0z"/>
</g>
<g>
	<polyline fill="#FFFFFF" stroke="#000000" stroke-miterlimit="10" points="333.72,308.58 334.319,306.18 334.319,305.58 
		334.92,305.58 336.12,306.779 337.319,307.38 335.521,312.72 334.319,316.92 334.92,319.92 333.12,322.92 331.92,322.92 
		333.72,316.32 333.72,308.58 	"/>
	<polyline points="331.92,323.52 331.319,323.52 333.12,316.32 333.12,308.58 334.319,308.58 334.319,316.32 332.521,322.92 
		331.92,323.52 	"/>
	<polyline fill="#FFFFFF" stroke="#000000" stroke-miterlimit="10" points="298.38,266.04 301.979,266.04 305.58,266.642 
		309.181,267.84 312.12,269.58 315.72,271.38 318.72,273.778 323.521,279.181 328.319,285.778 331.319,292.979 333.72,301.38 
		334.319,310.32 333.72,319.32 331.319,327.72 328.319,335.52 323.521,342.12 318.72,347.52 315.72,349.92 312.12,351.66 
		309.181,352.86 305.58,354.06 298.38,355.26 291.181,354.06 288.181,352.86 284.58,351.66 281.58,349.92 278.58,347.52 
		273.181,342.12 268.979,335.52 266.04,327.72 263.642,319.32 263.04,310.32 263.642,301.38 266.04,292.979 268.979,285.778 
		273.181,279.181 278.58,273.778 281.58,271.38 284.58,269.58 288.181,267.84 291.181,266.642 294.78,266.04 298.38,266.04 	"/>
	<polyline fill="#FFFFFF" stroke="#000000" stroke-miterlimit="10" points="263.642,308.58 263.04,306.18 263.04,305.58 
		262.44,305.58 261.24,306.779 260.04,307.38 261.84,312.72 263.04,316.92 262.44,319.92 264.24,322.92 265.44,322.92 
		263.642,316.32 263.642,308.58 	"/>
	<polyline points="301.979,308.58 300.181,309.72 298.38,310.32 296.58,309.72 294.181,308.58 294.181,307.38 296.58,308.58 
		298.38,309.18 300.181,308.58 301.979,307.38 301.979,308.58 	"/>
	<polyline points="294.181,321.12 292.979,325.92 293.58,327.72 292.38,327.72 291.78,325.92 292.979,321.12 294.181,321.12 	"/>
	<polyline points="302.58,321.12 303.78,321.72 305.58,322.32 308.58,325.32 310.92,329.52 312.12,334.92 310.92,334.92 
		309.72,329.52 307.38,325.32 305.58,323.52 303.78,322.92 302.58,322.32 302.58,321.12 	"/>
	<polyline points="302.58,321.12 303.78,323.52 303.78,325.92 303.181,327.72 301.979,327.72 302.58,325.92 302.58,323.52 
		301.38,321.12 302.58,321.12 	"/>
	<polyline stroke="#000000" stroke-miterlimit="10" points="295.38,326.52 296.58,326.52 297.181,327.12 296.58,327.72 
		294.181,327.72 293.58,327.12 294.181,326.52 295.38,326.52 	"/>
	<polyline stroke="#000000" stroke-miterlimit="10" points="300.78,326.52 301.979,326.52 302.58,327.12 301.979,327.72 
		299.58,327.72 298.979,327.12 299.58,326.52 300.78,326.52 	"/>
	<polyline fill="#FFFFFF" stroke="#000000" stroke-miterlimit="10" points="294.181,335.52 298.38,334.92 301.979,334.92 
		305.58,336.72 303.181,339.12 298.38,337.32 294.181,339.12 289.979,337.92 294.181,335.52 	"/>
	<polyline points="292.979,322.32 291.181,322.92 289.979,323.52 287.58,325.32 285.78,329.52 284.58,334.92 283.38,334.92 
		284.58,329.52 286.38,325.32 289.979,322.32 291.181,321.72 292.979,321.12 292.979,322.32 	"/>
	<polyline points="295.38,342.12 297.181,340.92 298.979,340.92 302.58,341.52 302.58,342.72 298.979,342.12 297.181,342.12 
		295.38,343.32 295.38,342.12 	"/>
	<polyline points="296.58,344.52 298.38,343.32 300.78,343.32 302.58,343.92 302.58,345.12 300.78,344.52 298.38,344.52 
		296.58,345.72 296.58,344.52 	"/>
	<polyline fill="#FFFFFF" points="288.181,311.52 286.38,310.92 285.181,310.32 277.38,310.32 273.78,311.52 276.181,310.32 
		276.78,309.18 277.38,308.58 280.979,307.38 283.979,307.38 285.78,307.98 288.181,311.52 	"/>
	<polyline points="286.38,311.52 285.181,310.92 277.38,310.92 273.78,312.12 273.78,310.92 277.38,309.72 285.181,309.72 
		286.38,310.32 286.38,311.52 	"/>
	<polyline points="273.78,312.12 273.78,310.92 275.58,309.72 276.181,309.18 277.38,307.98 280.979,306.779 283.979,306.779 
		285.78,307.38 288.78,311.52 287.58,311.52 285.78,308.58 283.979,307.98 280.979,307.98 277.38,309.18 276.78,310.92 
		273.78,312.12 	"/>
	<polyline points="288.78,311.52 289.38,312.72 286.38,311.52 286.38,310.32 288.181,310.92 288.78,311.52 	"/>
	<polyline points="286.38,310.32 288.78,310.92 288.78,312.12 286.38,311.52 286.38,310.32 	"/>
	<polyline points="288.78,310.92 290.58,311.52 284.58,313.92 281.58,313.32 277.979,313.32 277.979,312.12 281.58,312.12 
		284.58,312.72 288.78,310.92 	"/>
	<polyline points="286.38,310.32 288.78,310.92 288.78,312.12 286.38,311.52 286.38,310.32 	"/>
	<polyline points="288.78,310.92 290.58,311.52 284.58,313.92 281.58,313.32 277.979,313.32 277.979,312.12 281.58,312.12 
		284.58,312.72 288.78,310.92 	"/>
	<polyline fill="#FFFFFF" points="306.181,311.52 307.38,310.32 309.181,309.72 312.72,309.72 316.319,310.32 319.92,311.52 
		318.12,310.32 317.521,309.18 316.319,307.98 310.319,306.779 308.58,307.38 306.181,311.52 	"/>
	<polyline points="306.78,310.32 307.38,309.72 309.181,309.18 312.72,309.18 316.319,309.72 319.92,310.92 319.92,312.12 
		316.319,310.92 312.72,310.32 309.181,310.32 307.38,310.92 306.78,310.32 	"/>
	<polyline points="319.92,312.12 317.521,310.32 316.92,309.18 316.319,308.58 310.319,307.38 309.181,307.98 306.78,311.52 
		305.58,311.52 307.979,306.779 310.319,306.18 316.319,307.38 318.12,309.18 318.72,309.72 323.521,313.32 319.92,312.12 	"/>
	<polyline points="305.58,311.52 306.78,310.32 307.979,310.32 303.78,314.52 305.58,311.52 	"/>
	<polyline points="307.979,310.92 305.58,311.52 305.58,310.32 307.979,309.72 307.979,310.92 	"/>
	<polyline points="305.58,310.32 309.72,312.72 312.72,311.52 316.319,311.52 316.319,312.72 312.72,312.72 309.72,313.92 
		304.38,310.92 305.58,310.32 	"/>
	<polyline points="307.979,310.92 305.58,311.52 305.58,310.32 307.979,309.72 307.979,310.92 	"/>
	<polyline points="305.58,310.32 309.72,312.72 312.72,311.52 316.319,311.52 316.319,312.72 312.72,312.72 309.72,313.92 
		304.38,310.92 305.58,310.32 	"/>
	<polyline points="272.58,302.58 276.78,301.38 281.58,300.778 283.979,300.778 286.38,301.38 289.38,303.181 292.38,306.779 
		291.181,306.779 289.38,304.38 286.38,302.58 283.979,301.979 281.58,301.979 276.78,302.58 272.58,303.778 272.58,302.58 	"/>
	<polyline points="323.521,302.58 315.12,301.38 312.72,301.38 309.72,301.979 307.38,303.778 304.979,306.18 303.78,306.18 
		307.38,302.58 309.72,300.778 312.72,300.181 315.12,300.181 323.521,301.38 323.521,302.58 	"/>
	<polyline points="291.78,312.12 289.979,313.92 288.78,313.92 290.58,312.12 291.78,312.12 	"/>
	<polyline points="302.58,310.92 304.979,312.72 304.979,313.92 302.58,312.12 302.58,310.92 	"/>
	<polyline points="321.72,309.72 323.521,308.58 323.521,309.72 321.72,310.92 321.72,309.72 	"/>
	<polyline points="271.979,311.52 269.58,310.92 269.58,309.72 271.979,310.32 271.979,311.52 	"/>
</g>
<g>
	<polyline fill="#FFFFFF" points="154.56,304.979 155.16,302.58 155.16,301.979 155.76,301.979 156.96,303.181 157.56,304.38 
		156.36,309.18 155.16,313.32 155.76,316.32 153.96,319.32 152.76,319.32 154.56,312.72 154.56,304.979 	"/>
	<polyline points="154.56,302.58 154.56,301.38 155.76,301.38 157.56,303.181 158.16,304.38 156.96,309.18 155.76,313.32 
		156.36,316.32 153.96,319.92 152.76,319.92 152.76,318.72 153.96,318.72 155.16,316.32 154.56,313.32 155.76,309.18 156.96,304.38 
		156.36,303.181 155.76,302.58 154.56,302.58 	"/>
	<polyline points="152.76,319.92 152.16,319.92 153.96,312.72 153.96,304.979 155.16,304.979 155.16,312.72 153.36,319.32 
		152.76,319.92 	"/>
	<polyline points="153.96,304.979 154.56,302.58 155.76,302.58 155.16,304.979 153.96,304.979 	"/>
	<polyline fill="#FFFFFF" stroke="#000000" stroke-miterlimit="10" points="120.42,262.438 123.42,263.04 127.02,263.642 
		130.62,264.84 133.62,266.04 139.62,270.181 144.96,275.58 149.16,282.181 152.16,289.979 154.56,297.778 155.16,306.779 
		154.56,315.72 152.16,324.12 149.16,331.32 144.96,337.92 139.62,343.32 133.62,347.52 130.62,349.32 127.02,349.92 123.42,351.06 
		116.82,351.06 113.22,349.92 109.62,349.32 106.62,347.52 100.68,343.32 95.28,337.92 91.08,331.32 88.08,324.12 85.68,315.72 
		85.08,306.779 85.68,297.778 88.08,289.979 91.08,282.181 95.28,275.58 100.68,270.181 106.62,266.04 109.62,264.84 
		113.22,263.642 120.42,262.438 	"/>
	<polyline fill="#FFFFFF" points="86.28,304.979 85.68,302.58 85.08,301.979 84.48,301.979 83.28,303.181 82.68,304.38 
		84.48,309.18 85.08,313.32 84.48,316.32 86.28,319.32 87.48,319.32 86.28,312.72 86.28,304.979 	"/>
	<polyline points="85.08,302.58 84.48,302.58 83.88,303.181 83.28,304.38 85.08,309.18 85.68,313.32 85.08,316.32 86.28,318.72 
		87.48,318.72 87.48,319.92 86.28,319.92 83.88,316.32 84.48,313.32 83.88,309.18 82.08,304.38 82.68,303.181 84.48,301.38 
		85.08,301.38 86.28,302.58 85.08,302.58 	"/>
	<polyline points="86.88,319.32 85.68,312.72 85.68,304.979 86.88,304.979 86.88,312.72 88.08,319.92 87.48,319.92 86.88,319.32 	
		"/>
	<polyline points="85.68,304.979 85.08,302.58 86.28,302.58 86.88,304.979 85.68,304.979 	"/>
	<polyline points="93.48,301.38 95.88,300.181 97.08,298.979 98.88,296.58 101.28,294.181 103.62,293.58 106.02,294.181 
		109.62,295.979 113.22,301.979 112.02,301.979 108.42,297.181 106.02,295.38 103.62,294.778 101.28,295.38 100.08,296.58 
		98.28,298.979 95.88,301.38 93.48,302.58 93.48,301.38 	"/>
	<rect x="114.42" y="304.38" width="1.2" height="19.74"/>
	<polyline points="128.82,322.92 131.22,325.32 134.82,330.12 133.62,330.12 130.02,325.32 127.62,322.92 128.82,322.92 	"/>
	<polyline points="125.22,302.58 124.62,302.58 123.42,304.979 122.82,308.58 122.82,319.92 124.02,322.92 124.62,324.12 
		123.42,324.12 122.82,322.92 121.62,319.92 121.62,308.58 122.22,304.979 123.42,302.58 124.62,301.38 125.22,301.38 
		125.22,302.58 	"/>
	<polyline stroke="#000000" stroke-miterlimit="10" points="116.82,322.92 118.02,322.92 118.62,323.52 118.02,324.12 
		115.62,324.12 115.62,322.92 116.82,322.92 	"/>
	<polyline stroke="#000000" stroke-miterlimit="10" points="122.22,322.92 123.42,322.92 124.02,323.52 123.42,324.12 
		121.02,324.12 120.42,323.52 121.02,322.92 122.22,322.92 	"/>
	<polyline points="110.82,324.12 109.02,325.32 106.02,330.12 104.82,330.12 107.82,325.32 110.82,322.92 110.82,324.12 	"/>
	<polyline fill="#FFFFFF" stroke="#000000" stroke-miterlimit="10" points="119.82,328.32 121.62,328.92 122.82,330.12 
		124.02,331.92 124.02,336.72 122.82,339.12 121.62,340.32 119.82,340.92 118.02,340.32 116.82,339.12 115.62,336.72 115.02,334.32 
		115.62,331.92 116.82,330.12 118.02,328.92 119.82,328.32 	"/>
	<polyline points="103.62,277.979 107.22,274.979 111.42,271.979 115.62,270.778 120.42,270.181 124.62,270.778 128.82,271.979 
		133.02,274.38 137.22,278.58 136.02,278.58 133.02,275.58 128.82,273.181 124.62,271.979 120.42,271.38 115.62,271.979 
		111.42,273.181 107.22,276.181 103.62,279.181 103.62,277.979 	"/>
	<polyline fill="#FFFFFF" stroke="#000000" stroke-miterlimit="10" points="84.48,345.72 82.08,344.52 80.28,342.72 79.08,339.12 
		78.48,334.92 77.88,330.12 78.48,325.32 79.08,319.92 80.28,314.52 79.68,297.181 83.88,296.58 84.48,302.58 85.08,307.98 
		86.28,319.32 86.88,325.32 88.68,330.72 91.68,336.12 96.48,340.92 98.88,345.72 98.88,358.26 86.88,358.26 84.48,345.72 	"/>
	<polyline points="96.48,321.12 96.48,325.92 97.68,329.52 99.48,332.52 103.62,336.72 106.02,339.72 108.42,343.32 110.22,348.12 
		109.02,348.12 107.22,343.32 104.82,339.72 102.48,336.72 98.28,332.52 96.48,329.52 95.28,325.92 95.28,321.12 96.48,321.12 	"/>
	<polyline points="146.16,305.58 143.22,303.778 141.42,300.778 137.22,296.58 134.22,295.38 131.22,295.38 130.02,295.979 
		128.22,297.181 125.22,301.38 124.02,301.38 127.62,295.979 130.02,294.778 131.22,294.181 134.22,294.181 137.22,295.38 
		142.62,300.778 144.42,302.58 146.16,304.38 146.16,305.58 	"/>
	<path d="M103.62,301.979h-1.74l-1.8,0.601l-2.4,1.8l-0.6,1.8v2.4l1.2,1.74h3l2.94-0.602l1.8-1.739h3l1.8-1.801L103.62,301.979z
		 M106.02,306.779l-1.8,1.801l-2.94,0.6h-3v-3l0.515-1.542l1.285-0.857l1.8-0.6h1.74l6,2.999l-0.6,0.601L106.02,306.779
		L106.02,306.779z"/>
	<polyline stroke="#000000" stroke-miterlimit="10" points="101.88,302.58 103.08,302.58 103.62,303.778 104.22,306.18 
		103.62,308.58 103.08,309.18 101.88,309.72 100.68,308.58 100.08,306.18 100.68,303.778 101.28,302.58 101.88,302.58 	"/>
	<polyline points="92.88,304.979 94.08,309.18 94.08,315.12 92.88,317.52 91.68,317.52 92.88,315.12 92.88,309.18 91.68,304.979 
		92.88,304.979 	"/>
	<polyline points="144.42,320.52 144.42,325.92 143.82,329.52 141.42,332.52 136.62,337.32 134.22,340.32 131.22,343.92 
		129.42,348.72 128.22,348.72 130.02,343.92 133.02,340.32 135.42,337.32 140.22,332.52 142.62,329.52 143.22,325.92 143.22,320.52 
		144.42,320.52 	"/>
	<polyline fill="#FFFFFF" stroke="#000000" stroke-miterlimit="10" points="155.76,345.72 156.96,345.72 158.16,345.12 
		159.96,342.72 161.16,339.72 162.36,335.52 162.36,325.32 161.76,320.52 159.96,315.12 160.56,297.181 156.96,297.181 
		155.76,302.58 155.16,308.58 154.56,319.92 153.36,325.32 151.56,330.72 148.56,336.12 144.42,340.92 142.02,345.72 142.02,358.86 
		153.96,358.26 155.76,345.72 	"/>
	<path d="M139.02,303.778l-0.6-0.6l-1.8-1.199h-1.8l-6.6,4.199l-0.6,0.601l1.2,1.201h1.8l3.6,1.738l4.8,1.2l1.8-1.2v-1.14l0.6-2.4
		L139.02,303.778z M139.62,308.58v0.6l-0.6,0.54l-4.8-1.14l-3.6-1.801h-1.457l5.657-3.601h1.8l1.8,1.2l1.8,1.8L139.62,308.58z"/>
	<polyline stroke="#000000" stroke-miterlimit="10" points="136.02,302.58 134.82,303.778 134.22,306.18 134.82,308.58 
		136.02,309.72 137.22,309.18 137.82,308.58 138.42,306.18 137.82,303.778 137.22,303.181 136.02,302.58 	"/>
</g>
<g>
	<polygon fill="none" points="78.197,143.87 67.238,143.87 67.238,123.153 45.512,123.153 45.512,143.87 34.356,143.87 
		56.139,162.488 	"/>
	<path d="M68.832,142.276v-25.981H43.918v25.981h-13.28l24.966,21.727l0.531,0.531l24.382-20.664l2.125-1.594H68.832z
		 M34.356,143.87h11.155v-25.981h21.726v25.981h10.959l-22.058,18.619L34.356,143.87z"/>
</g>
<path d="M97.68,164.76L56.34,94.68L15,165.96h1.2h1.2h80.88L97.68,164.76z M18.445,164.16L56.34,98.88l38.479,65.28H18.445z"/>
<g id="layer1" transform="translate(-387.18712,-225.98514)">
	<g>
		<path fill="#010101" d="M448.049,379.331c-2.187-1.262-2.976-4.008-1.841-6.23l-0.9-0.52c-0.335,0.431-0.853,0.713-1.441,0.713
			c-0.589,0-1.109-0.284-1.443-0.718l-0.909,0.525c1.125,2.221,0.335,4.958-1.847,6.218c-2.259,1.304-5.147,0.53-6.451-1.729
			c-1.305-2.259-0.531-5.147,1.728-6.451c2.187-1.263,4.958-0.573,6.317,1.521l0.907-0.524c-0.083-0.209-0.132-0.436-0.132-0.674
			c0-0.923,0.686-1.679,1.572-1.806v-1.061c-2.486-0.137-4.462-2.19-4.462-4.71c0-2.445,1.858-4.457,4.24-4.698
			c-3.673,0.249-6.577,3.3-6.577,7.036c0,0.407,0.042,0.804,0.108,1.191c-0.392,0.141-0.778,0.312-1.151,0.528
			c-3.377,1.949-4.533,6.267-2.584,9.644c1.95,3.376,6.267,4.534,9.644,2.584c0.352-0.204,0.674-0.439,0.978-0.689
			c0.318,0.269,0.66,0.518,1.033,0.733c3.239,1.869,7.336,0.875,9.387-2.186C452.818,379.954,450.16,380.55,448.049,379.331z"/>
		<path fill="#010101" d="M448.591,363.887c0,2.525-1.983,4.581-4.476,4.71v1.06c0.892,0.122,1.582,0.88,1.582,1.807
			c0,0.241-0.049,0.469-0.134,0.68l0.899,0.519c1.361-2.085,4.126-2.77,6.309-1.509c2.1,1.212,2.914,3.793,1.97,5.965
			c1.56-3.29,0.361-7.277-2.847-9.13c-0.352-0.204-0.717-0.365-1.086-0.502c0.074-0.41,0.119-0.83,0.119-1.261
			c0-3.736-2.903-6.787-6.576-7.036C446.733,359.43,448.591,361.442,448.591,363.887z"/>
		<path fill="#FCEE21" d="M443.869,359.164c0.163,0,0.322,0.013,0.483,0.024C444.192,359.172,444.032,359.164,443.869,359.164z"/>
		<path fill="#FCEE21" d="M443.385,359.188c0.161-0.011,0.32-0.024,0.483-0.024C443.705,359.164,443.544,359.172,443.385,359.188z"
			/>
		<path fill="#FCEE21" d="M454.742,377.117c-0.082,0.173-0.165,0.345-0.262,0.514c-0.08,0.138-0.169,0.267-0.258,0.398
			c0.099-0.136,0.192-0.277,0.278-0.425C454.592,377.444,454.671,377.282,454.742,377.117z"/>
	</g>
	<path fill="#010101" d="M440.97,366.964l-0.575-0.897c1.029-0.659,2.222-1.007,3.448-1.007c1.264,0,2.456,0.348,3.484,1.007
		l-0.575,0.897c-0.856-0.548-1.85-0.838-2.873-0.838C442.821,366.126,441.827,366.416,440.97,366.964z"/>
	<path fill="#010101" d="M440.929,377.148c-1.085-0.562-1.982-1.42-2.595-2.482l-0.019-0.033c-0.612-1.061-0.907-2.268-0.851-3.488
		l1.065,0.048c-0.046,1.017,0.199,2.022,0.71,2.907l0.019,0.033c0.51,0.884,1.258,1.6,2.162,2.068L440.929,377.148z"/>
	<path fill="#010101" d="M446.793,377.148l-0.491-0.947c0.905-0.468,1.653-1.184,2.163-2.068l0.021-0.035
		c0.509-0.883,0.755-1.889,0.708-2.904l1.065-0.049c0.056,1.219-0.238,2.427-0.852,3.49l-0.021,0.035
		C448.776,375.727,447.879,376.586,446.793,377.148z"/>
</g>
<path id="circle4439" fill="#010101" d="M340.646,135.307c0-4.135,3.353-7.488,7.487-7.488c4.136,0,7.487,3.353,7.487,7.488
	c0,4.136-3.352,7.488-7.487,7.488C343.998,142.795,340.646,139.442,340.646,135.307z M329.371,167.781l13.124-22.744
	c-0.225-0.14-0.449-0.252-0.674-0.42c-0.309-0.196-0.588-0.42-0.869-0.646c-0.279-0.224-0.532-0.477-0.813-0.729
	c-0.252-0.251-0.506-0.533-0.729-0.785c-0.225-0.28-0.449-0.561-0.646-0.87c-0.195-0.309-0.392-0.617-0.561-0.926
	c-0.167-0.309-0.337-0.645-0.477-0.981c-0.142-0.336-0.281-0.672-0.395-1.038c-0.111-0.364-0.195-0.701-0.279-1.065
	c-0.085-0.365-0.141-0.729-0.168-1.122c-0.027-0.365-0.058-0.757-0.058-1.15H310.58C310.64,149.104,317.425,160.882,329.371,167.781
	z M366.866,167.781c11.945-6.899,18.732-18.677,18.732-32.475h-26.25c0,0.392-0.027,0.785-0.056,1.149
	c-0.026,0.365-0.112,0.757-0.169,1.122c-0.083,0.364-0.168,0.729-0.279,1.065c-0.111,0.365-0.226,0.701-0.394,1.038
	c-0.14,0.336-0.31,0.673-0.476,0.981c-0.17,0.309-0.365,0.617-0.563,0.925c-0.195,0.309-0.421,0.589-0.645,0.87
	c-0.226,0.281-0.479,0.533-0.729,0.785c-0.252,0.253-0.533,0.505-0.813,0.729c-0.279,0.224-0.561,0.449-0.867,0.645
	c-0.227,0.141-0.45,0.28-0.674,0.42L366.866,167.781L366.866,167.781z M353.741,125.576l13.125-22.744
	c-11.947-6.898-25.549-6.898-37.495,0l13.124,22.744c0.085-0.056,0.169-0.113,0.254-0.168c0.309-0.168,0.645-0.336,0.98-0.477
	s0.674-0.281,1.037-0.393c0.364-0.112,0.701-0.197,1.065-0.281s0.729-0.14,1.122-0.168c0.363-0.029,0.757-0.056,1.148-0.056
	c0.393,0,0.758,0.027,1.15,0.056c0.364,0.028,0.757,0.084,1.12,0.168c0.366,0.084,0.729,0.169,1.067,0.281
	c0.362,0.112,0.699,0.224,1.037,0.393c0.336,0.14,0.672,0.309,0.981,0.477C353.573,125.463,353.656,125.52,353.741,125.576z"/>
<g enable-background="new    ">
	<path d="M104.197,164.76v-34.495h11.882c2.683,0,4.729,0.165,6.142,0.494c1.977,0.456,3.663,1.279,5.059,2.471
		c1.82,1.538,3.18,3.503,4.083,5.895c0.902,2.393,1.353,5.126,1.353,8.2c0,2.62-0.306,4.941-0.917,6.965
		c-0.612,2.023-1.396,3.698-2.353,5.023c-0.957,1.326-2.004,2.369-3.142,3.13s-2.51,1.337-4.118,1.729
		c-1.608,0.392-3.455,0.588-5.541,0.588H104.197z M108.762,160.689h7.365c2.274,0,4.059-0.212,5.353-0.636
		c1.294-0.424,2.325-1.02,3.094-1.788c1.082-1.082,1.925-2.537,2.529-4.365c0.604-1.827,0.906-4.043,0.906-6.646
		c0-3.608-0.592-6.381-1.776-8.318c-1.185-1.937-2.624-3.235-4.318-3.894c-1.224-0.471-3.192-0.706-5.906-0.706h-7.247V160.689z"/>
	<path d="M135.209,164.76l13.248-34.495h4.917l14.118,34.495h-5.2l-4.023-10.447h-14.424l-3.789,10.447H135.209z M145.163,150.595
		h11.694l-3.6-9.553c-1.098-2.902-1.914-5.286-2.447-7.153c-0.439,2.212-1.059,4.408-1.859,6.588L145.163,150.595z"/>
	<path d="M171.092,164.76v-34.495h4.683l18.118,27.083v-27.083h4.376v34.495h-4.683l-18.118-27.106v27.106H171.092z"/>
	<path d="M222.081,151.23v-4.048l14.612-0.023v12.801c-2.243,1.788-4.558,3.133-6.941,4.035c-2.385,0.901-4.831,1.353-7.341,1.353
		c-3.389,0-6.467-0.725-9.236-2.176c-2.769-1.451-4.858-3.55-6.27-6.295c-1.413-2.744-2.118-5.812-2.118-9.2
		c0-3.356,0.702-6.49,2.106-9.399c1.402-2.91,3.423-5.071,6.059-6.482c2.635-1.412,5.67-2.118,9.105-2.118
		c2.494,0,4.749,0.404,6.766,1.212c2.015,0.808,3.596,1.934,4.74,3.377s2.016,3.325,2.612,5.646l-4.118,1.13
		c-0.518-1.757-1.16-3.138-1.93-4.142c-0.768-1.004-1.866-1.808-3.293-2.412c-1.428-0.604-3.012-0.905-4.754-0.905
		c-2.086,0-3.891,0.317-5.412,0.953c-1.521,0.635-2.749,1.471-3.682,2.506c-0.934,1.035-1.659,2.173-2.177,3.411
		c-0.879,2.134-1.317,4.447-1.317,6.941c0,3.075,0.529,5.647,1.588,7.718c1.059,2.071,2.6,3.608,4.623,4.612
		c2.024,1.004,4.174,1.506,6.447,1.506c1.977,0,3.906-0.38,5.789-1.142c1.883-0.761,3.31-1.572,4.282-2.436v-6.423H222.081z"/>
	<path d="M243.517,164.76v-34.495h24.941v4.071h-20.377V144.9h19.084v4.047h-19.084v11.742h21.178v4.07H243.517z"/>
	<path d="M275.635,164.76v-34.495h15.294c3.074,0,5.412,0.311,7.013,0.93c1.6,0.62,2.878,1.714,3.835,3.282
		c0.957,1.569,1.436,3.303,1.436,5.2c0,2.447-0.793,4.511-2.377,6.188c-1.584,1.679-4.031,2.745-7.341,3.2
		c1.208,0.58,2.126,1.153,2.753,1.718c1.333,1.224,2.596,2.753,3.788,4.588l6.001,9.389h-5.742l-4.564-7.177
		c-1.334-2.07-2.432-3.654-3.295-4.753c-0.862-1.098-1.635-1.866-2.316-2.306c-0.684-0.439-1.377-0.745-2.083-0.918
		c-0.518-0.109-1.364-0.165-2.541-0.165H280.2v15.318H275.635z M280.2,145.489h9.812c2.086,0,3.718-0.216,4.894-0.647
		c1.178-0.432,2.071-1.121,2.684-2.07c0.611-0.949,0.917-1.98,0.917-3.095c0-1.631-0.593-2.973-1.776-4.023
		c-1.185-1.051-3.055-1.576-5.611-1.576H280.2V145.489z"/>
</g>
<g enable-background="new    ">
	<path d="M79.127,205.5v-14.204h5.358c0.943,0,1.663,0.046,2.161,0.136c0.698,0.116,1.282,0.338,1.753,0.664
		c0.472,0.326,0.851,0.783,1.139,1.371c0.287,0.588,0.431,1.233,0.431,1.938c0,1.208-0.384,2.23-1.153,3.066
		c-0.769,0.837-2.158,1.255-4.167,1.255h-3.643v5.774H79.127z M81.007,198.05h3.672c1.214,0,2.077-0.227,2.587-0.679
		s0.765-1.088,0.765-1.908c0-0.595-0.15-1.104-0.45-1.526s-0.696-0.702-1.187-0.838c-0.316-0.084-0.901-0.126-1.754-0.126h-3.633
		V198.05z"/>
	<path d="M91.791,198.582c0-2.357,0.633-4.203,1.899-5.537c1.266-1.333,2.9-2.001,4.902-2.001c1.311,0,2.493,0.313,3.546,0.94
		c1.053,0.626,1.855,1.5,2.408,2.621c0.552,1.12,0.829,2.392,0.829,3.813c0,1.44-0.291,2.729-0.872,3.865
		c-0.582,1.137-1.405,1.998-2.471,2.582c-1.066,0.585-2.215,0.877-3.449,0.877c-1.337,0-2.532-0.323-3.585-0.969
		s-1.851-1.527-2.393-2.646C92.062,201.011,91.791,199.829,91.791,198.582z M93.729,198.611c0,1.712,0.46,3.061,1.38,4.045
		c0.921,0.985,2.075,1.478,3.464,1.478c1.415,0,2.579-0.497,3.493-1.492c0.914-0.994,1.371-2.405,1.371-4.233
		c0-1.156-0.195-2.166-0.586-3.028c-0.391-0.862-0.963-1.53-1.715-2.005c-0.752-0.476-1.597-0.713-2.533-0.713
		c-1.331,0-2.476,0.457-3.435,1.371C94.208,194.947,93.729,196.474,93.729,198.611z"/>
	<path d="M108.116,205.5v-14.204h1.879V205.5H108.116z"/>
	<path d="M112.67,200.936l1.773-0.155c0.083,0.711,0.279,1.294,0.586,1.749s0.783,0.823,1.429,1.104s1.373,0.422,2.18,0.422
		c0.717,0,1.35-0.106,1.899-0.32c0.549-0.213,0.958-0.505,1.226-0.877c0.268-0.371,0.402-0.776,0.402-1.216
		c0-0.445-0.129-0.834-0.388-1.167s-0.685-0.612-1.279-0.838c-0.381-0.148-1.224-0.38-2.529-0.693
		c-1.305-0.313-2.219-0.608-2.742-0.887c-0.678-0.354-1.184-0.796-1.516-1.322c-0.333-0.526-0.499-1.115-0.499-1.768
		c0-0.718,0.203-1.388,0.61-2.011c0.407-0.623,1.001-1.097,1.783-1.42c0.781-0.322,1.65-0.484,2.606-0.484
		c1.053,0,1.981,0.17,2.786,0.509c0.804,0.34,1.423,0.838,1.855,1.497s0.665,1.405,0.698,2.238l-1.802,0.136
		c-0.097-0.897-0.425-1.576-0.983-2.035c-0.559-0.458-1.384-0.688-2.476-0.688c-1.137,0-1.965,0.208-2.485,0.625
		c-0.52,0.416-0.78,0.919-0.78,1.507c0,0.51,0.184,0.93,0.552,1.259c0.362,0.33,1.307,0.667,2.834,1.013s2.576,0.647,3.144,0.906
		c0.827,0.381,1.437,0.863,1.831,1.448s0.591,1.258,0.591,2.021c0,0.755-0.217,1.468-0.649,2.136
		c-0.433,0.669-1.054,1.188-1.865,1.561c-0.811,0.371-1.723,0.557-2.737,0.557c-1.285,0-2.362-0.188-3.231-0.562
		c-0.869-0.375-1.55-0.938-2.044-1.691C112.956,202.737,112.695,201.886,112.67,200.936z"/>
	<path d="M125.972,198.582c0-2.357,0.633-4.203,1.899-5.537c1.266-1.333,2.9-2.001,4.902-2.001c1.311,0,2.493,0.313,3.546,0.94
		c1.053,0.626,1.855,1.5,2.408,2.621c0.552,1.12,0.829,2.392,0.829,3.813c0,1.44-0.291,2.729-0.872,3.865
		c-0.582,1.137-1.405,1.998-2.471,2.582c-1.066,0.585-2.215,0.877-3.449,0.877c-1.337,0-2.532-0.323-3.585-0.969
		s-1.851-1.527-2.393-2.646C126.244,201.011,125.972,199.829,125.972,198.582z M127.91,198.611c0,1.712,0.46,3.061,1.38,4.045
		c0.921,0.985,2.075,1.478,3.464,1.478c1.415,0,2.579-0.497,3.493-1.492c0.914-0.994,1.371-2.405,1.371-4.233
		c0-1.156-0.195-2.166-0.586-3.028c-0.391-0.862-0.963-1.53-1.715-2.005c-0.752-0.476-1.597-0.713-2.533-0.713
		c-1.331,0-2.476,0.457-3.435,1.371C128.39,194.947,127.91,196.474,127.91,198.611z"/>
	<path d="M141.958,205.5v-14.204h1.928l7.46,11.152v-11.152h1.802V205.5h-1.928l-7.46-11.161V205.5H141.958z"/>
	<path d="M155.736,198.582c0-2.357,0.633-4.203,1.899-5.537c1.266-1.333,2.9-2.001,4.902-2.001c1.311,0,2.493,0.313,3.546,0.94
		c1.053,0.626,1.855,1.5,2.408,2.621c0.552,1.12,0.829,2.392,0.829,3.813c0,1.44-0.291,2.729-0.872,3.865
		c-0.582,1.137-1.405,1.998-2.471,2.582c-1.066,0.585-2.215,0.877-3.449,0.877c-1.337,0-2.532-0.323-3.585-0.969
		s-1.851-1.527-2.393-2.646C156.007,201.011,155.736,199.829,155.736,198.582z M157.674,198.611c0,1.712,0.46,3.061,1.38,4.045
		c0.921,0.985,2.075,1.478,3.464,1.478c1.415,0,2.579-0.497,3.493-1.492c0.914-0.994,1.371-2.405,1.371-4.233
		c0-1.156-0.195-2.166-0.586-3.028c-0.391-0.862-0.963-1.53-1.715-2.005c-0.752-0.476-1.597-0.713-2.533-0.713
		c-1.331,0-2.476,0.457-3.435,1.371C158.153,194.947,157.674,196.474,157.674,198.611z"/>
	<path d="M181.063,191.296h1.879v8.207c0,1.428-0.162,2.561-0.484,3.4c-0.323,0.84-0.906,1.522-1.749,2.049
		c-0.843,0.527-1.949,0.79-3.318,0.79c-1.331,0-2.419-0.229-3.265-0.688c-0.846-0.459-1.45-1.123-1.812-1.991
		c-0.362-0.869-0.542-2.056-0.542-3.561v-8.207h1.879v8.197c0,1.233,0.115,2.143,0.344,2.728c0.229,0.584,0.624,1.035,1.182,1.352
		s1.242,0.475,2.049,0.475c1.382,0,2.367-0.313,2.955-0.94c0.588-0.626,0.882-1.831,0.882-3.613V191.296z"/>
	<path d="M185.432,200.936l1.773-0.155c0.083,0.711,0.279,1.294,0.586,1.749s0.783,0.823,1.429,1.104s1.373,0.422,2.18,0.422
		c0.717,0,1.35-0.106,1.899-0.32c0.549-0.213,0.958-0.505,1.226-0.877c0.268-0.371,0.402-0.776,0.402-1.216
		c0-0.445-0.129-0.834-0.388-1.167s-0.685-0.612-1.279-0.838c-0.381-0.148-1.224-0.38-2.529-0.693
		c-1.305-0.313-2.219-0.608-2.742-0.887c-0.678-0.354-1.184-0.796-1.516-1.322c-0.333-0.526-0.499-1.115-0.499-1.768
		c0-0.718,0.203-1.388,0.61-2.011c0.407-0.623,1.001-1.097,1.783-1.42c0.781-0.322,1.65-0.484,2.606-0.484
		c1.053,0,1.981,0.17,2.786,0.509c0.804,0.34,1.423,0.838,1.855,1.497s0.665,1.405,0.698,2.238l-1.802,0.136
		c-0.097-0.897-0.425-1.576-0.983-2.035c-0.559-0.458-1.384-0.688-2.476-0.688c-1.137,0-1.965,0.208-2.485,0.625
		c-0.52,0.416-0.78,0.919-0.78,1.507c0,0.51,0.184,0.93,0.552,1.259c0.362,0.33,1.307,0.667,2.834,1.013s2.576,0.647,3.144,0.906
		c0.827,0.381,1.437,0.863,1.831,1.448s0.591,1.258,0.591,2.021c0,0.755-0.217,1.468-0.649,2.136
		c-0.433,0.669-1.054,1.188-1.865,1.561c-0.811,0.371-1.723,0.557-2.737,0.557c-1.285,0-2.362-0.188-3.231-0.562
		c-0.869-0.375-1.55-0.938-2.044-1.691C185.718,202.737,185.458,201.886,185.432,200.936z"/>
	<path d="M204.849,205.5v-14.204h6.297c1.267,0,2.229,0.128,2.888,0.383c0.659,0.256,1.186,0.706,1.579,1.352
		c0.395,0.646,0.592,1.36,0.592,2.142c0,1.008-0.326,1.857-0.979,2.548c-0.652,0.691-1.66,1.131-3.023,1.318
		c0.498,0.238,0.875,0.475,1.134,0.707c0.549,0.504,1.069,1.134,1.56,1.889l2.471,3.866h-2.363l-1.881-2.955
		c-0.549-0.853-1-1.505-1.355-1.957s-0.674-0.769-0.955-0.949s-0.566-0.307-0.857-0.378c-0.213-0.045-0.562-0.068-1.046-0.068
		h-2.181v6.308H204.849z M206.728,197.564h4.041c0.859,0,1.531-0.088,2.016-0.266s0.852-0.462,1.104-0.853
		c0.252-0.392,0.379-0.815,0.379-1.274c0-0.672-0.244-1.224-0.732-1.657c-0.488-0.433-1.258-0.648-2.311-0.648h-4.496V197.564z"/>
	<path d="M217.589,205.5l5.455-14.204h2.025l5.813,14.204h-2.141l-1.657-4.302h-5.938l-1.561,4.302H217.589z M221.688,199.667h4.815
		l-1.482-3.934c-0.452-1.194-0.788-2.176-1.008-2.945c-0.181,0.911-0.436,1.815-0.766,2.713L221.688,199.667z"/>
	<path d="M232.384,205.5v-14.204h4.893c1.104,0,1.947,0.068,2.528,0.204c0.813,0.188,1.509,0.526,2.083,1.018
		c0.75,0.633,1.31,1.441,1.682,2.427c0.371,0.985,0.557,2.11,0.557,3.376c0,1.079-0.126,2.035-0.378,2.868s-0.575,1.522-0.969,2.068
		s-0.825,0.976-1.294,1.289c-0.468,0.313-1.033,0.551-1.695,0.712s-1.422,0.242-2.281,0.242H232.384z M234.263,203.824h3.033
		c0.936,0,1.671-0.088,2.203-0.262c0.533-0.175,0.958-0.42,1.275-0.736c0.445-0.446,0.792-1.045,1.041-1.798
		c0.248-0.752,0.373-1.664,0.373-2.736c0-1.486-0.244-2.628-0.731-3.426c-0.487-0.797-1.081-1.332-1.778-1.604
		c-0.504-0.193-1.314-0.29-2.432-0.29h-2.984V203.824z"/>
	<path d="M247.033,205.5v-14.204h1.88V205.5H247.033z"/>
	<path d="M251.654,198.582c0-2.357,0.634-4.203,1.899-5.537c1.266-1.333,2.9-2.001,4.902-2.001c1.311,0,2.493,0.313,3.546,0.94
		c1.053,0.626,1.855,1.5,2.407,2.621c0.553,1.12,0.829,2.392,0.829,3.813c0,1.44-0.291,2.729-0.872,3.865
		c-0.582,1.137-1.404,1.998-2.471,2.582c-1.066,0.585-2.215,0.877-3.449,0.877c-1.337,0-2.532-0.323-3.585-0.969
		s-1.851-1.527-2.394-2.646C251.926,201.011,251.654,199.829,251.654,198.582z M253.593,198.611c0,1.712,0.459,3.061,1.38,4.045
		c0.921,0.985,2.075,1.478,3.464,1.478c1.414,0,2.578-0.497,3.492-1.492c0.914-0.994,1.371-2.405,1.371-4.233
		c0-1.156-0.195-2.166-0.586-3.028s-0.963-1.53-1.715-2.005c-0.752-0.476-1.597-0.713-2.533-0.713c-1.331,0-2.476,0.457-3.435,1.371
		C254.071,194.947,253.593,196.474,253.593,198.611z"/>
	<path d="M266.101,205.5l5.455-14.204h2.024l5.813,14.204h-2.142l-1.657-4.302h-5.938l-1.56,4.302H266.101z M270.198,199.667h4.816
		l-1.482-3.934c-0.453-1.194-0.789-2.176-1.008-2.945c-0.182,0.911-0.437,1.815-0.766,2.713L270.198,199.667z"/>
	<path d="M291.029,200.52l1.88,0.476c-0.395,1.544-1.104,2.721-2.127,3.531s-2.275,1.216-3.754,1.216
		c-1.531,0-2.775-0.312-3.735-0.935c-0.959-0.624-1.688-1.526-2.189-2.708c-0.501-1.183-0.751-2.451-0.751-3.808
		c0-1.479,0.282-2.77,0.848-3.871s1.369-1.938,2.412-2.51c1.043-0.571,2.191-0.857,3.445-0.857c1.42,0,2.615,0.362,3.584,1.086
		c0.969,0.723,1.645,1.74,2.025,3.052l-1.851,0.436c-0.329-1.033-0.808-1.786-1.435-2.257c-0.626-0.472-1.414-0.708-2.363-0.708
		c-1.092,0-2.004,0.262-2.737,0.785s-1.249,1.226-1.546,2.107s-0.445,1.791-0.445,2.728c0,1.208,0.176,2.262,0.528,3.163
		s0.899,1.574,1.642,2.021c0.743,0.445,1.547,0.668,2.413,0.668c1.053,0,1.944-0.304,2.674-0.91
		C290.276,202.616,290.771,201.715,291.029,200.52z"/>
	<path d="M298.839,205.5v-12.527h-4.68v-1.677h11.258v1.677h-4.699V205.5H298.839z"/>
	<path d="M307.665,205.5v-14.204h1.879V205.5H307.665z"/>
	<path d="M316.917,205.5l-5.502-14.204h2.034l3.691,10.319c0.297,0.826,0.546,1.602,0.745,2.325
		c0.221-0.775,0.476-1.551,0.766-2.325l3.838-10.319h1.918l-5.562,14.204H316.917z"/>
	<path d="M326.132,205.5v-14.204h10.27v1.677h-8.391v4.35h7.857v1.667h-7.857v4.835h8.721v1.676H326.132z"/>
</g>
<g enable-background="new    ">
	<path d="M145.892,227.61l-3.769-14.204h1.928l2.161,9.312c0.232,0.976,0.433,1.944,0.601,2.906
		c0.362-1.518,0.575-2.393,0.639-2.626l2.703-9.592h2.268l2.035,7.189c0.51,1.783,0.878,3.459,1.104,5.028
		c0.181-0.897,0.417-1.928,0.707-3.091l2.229-9.127h1.889l-3.895,14.204h-1.812l-2.994-10.822c-0.252-0.904-0.401-1.46-0.446-1.666
		c-0.149,0.652-0.288,1.207-0.417,1.666l-3.013,10.822H145.892z"/>
	<path d="M159.844,227.61l5.455-14.204h2.025l5.813,14.204h-2.141l-1.657-4.302H163.4l-1.56,4.302H159.844z M163.942,221.777h4.815
		l-1.482-3.934c-0.452-1.194-0.788-2.176-1.008-2.945c-0.181,0.911-0.436,1.815-0.766,2.713L163.942,221.777z"/>
	<path d="M173.999,223.047l1.773-0.155c0.083,0.711,0.279,1.294,0.586,1.749s0.783,0.823,1.429,1.104s1.373,0.422,2.18,0.422
		c0.717,0,1.35-0.106,1.899-0.32c0.549-0.213,0.958-0.505,1.226-0.877c0.268-0.371,0.402-0.776,0.402-1.216
		c0-0.445-0.129-0.834-0.388-1.167s-0.685-0.612-1.279-0.838c-0.381-0.148-1.224-0.38-2.529-0.693
		c-1.305-0.313-2.219-0.608-2.742-0.887c-0.678-0.354-1.184-0.796-1.516-1.322c-0.333-0.526-0.499-1.115-0.499-1.768
		c0-0.718,0.203-1.388,0.61-2.011c0.407-0.623,1.001-1.097,1.783-1.42c0.781-0.322,1.65-0.484,2.606-0.484
		c1.053,0,1.981,0.17,2.786,0.509c0.804,0.34,1.423,0.838,1.855,1.497s0.665,1.405,0.698,2.238l-1.802,0.136
		c-0.097-0.897-0.425-1.576-0.983-2.035c-0.559-0.458-1.384-0.688-2.476-0.688c-1.137,0-1.965,0.208-2.485,0.625
		c-0.52,0.416-0.78,0.919-0.78,1.507c0,0.51,0.184,0.93,0.552,1.259c0.362,0.33,1.307,0.667,2.834,1.013s2.576,0.647,3.144,0.906
		c0.827,0.381,1.437,0.863,1.831,1.448s0.591,1.258,0.591,2.021c0,0.755-0.217,1.468-0.649,2.136
		c-0.433,0.669-1.054,1.188-1.865,1.561c-0.811,0.371-1.723,0.557-2.737,0.557c-1.285,0-2.362-0.188-3.231-0.562
		c-0.869-0.375-1.55-0.938-2.044-1.691C174.285,224.848,174.024,223.996,173.999,223.047z"/>
	<path d="M191.487,227.61v-12.527h-4.68v-1.677h11.258v1.677h-4.699v12.527H191.487z"/>
	<path d="M200.032,227.61v-14.204h10.271v1.677h-8.391v4.35h7.857v1.667h-7.857v4.835h8.72v1.676H200.032z"/>
	<path d="M218.8,227.61v-14.204h1.879v5.833h7.383v-5.833h1.88v14.204h-1.88v-6.695h-7.383v6.695H218.8z"/>
	<path d="M233.109,227.61v-14.204h10.271v1.677h-8.391v4.35h7.857v1.667h-7.857v4.835h8.72v1.676H233.109z"/>
	<path d="M246.335,227.61v-14.204h6.297c1.267,0,2.229,0.128,2.888,0.383c0.659,0.256,1.186,0.706,1.579,1.352
		c0.395,0.646,0.592,1.36,0.592,2.142c0,1.008-0.326,1.857-0.979,2.548c-0.652,0.691-1.66,1.131-3.023,1.318
		c0.498,0.238,0.875,0.475,1.134,0.707c0.549,0.504,1.069,1.134,1.56,1.889l2.471,3.866h-2.363l-1.881-2.955
		c-0.549-0.853-1-1.505-1.355-1.957s-0.674-0.769-0.955-0.949s-0.566-0.307-0.857-0.378c-0.213-0.045-0.562-0.068-1.046-0.068
		h-2.181v6.308H246.335z M248.214,219.675h4.041c0.859,0,1.531-0.088,2.016-0.266s0.852-0.462,1.104-0.853
		c0.252-0.392,0.379-0.815,0.379-1.274c0-0.672-0.244-1.224-0.732-1.657c-0.488-0.433-1.258-0.648-2.311-0.648h-4.496V219.675z"/>
	<path d="M260.674,227.61v-14.204h10.271v1.677h-8.391v4.35h7.857v1.667h-7.857v4.835h8.72v1.676H260.674z"/>
</g>
<g enable-background="new    ">
	<path d="M101.696,249.721v-14.204h4.893c1.104,0,1.947,0.068,2.528,0.204c0.814,0.188,1.508,0.526,2.083,1.018
		c0.749,0.633,1.309,1.441,1.681,2.427s0.557,2.11,0.557,3.376c0,1.079-0.126,2.035-0.378,2.868s-0.575,1.522-0.969,2.068
		s-0.825,0.976-1.293,1.289s-1.033,0.551-1.695,0.712s-1.423,0.242-2.282,0.242H101.696z M103.576,248.045h3.032
		c0.937,0,1.671-0.088,2.204-0.262c0.533-0.175,0.958-0.42,1.274-0.736c0.445-0.446,0.792-1.045,1.042-1.798
		c0.249-0.752,0.373-1.664,0.373-2.736c0-1.486-0.244-2.628-0.731-3.426c-0.488-0.797-1.081-1.332-1.778-1.604
		c-0.504-0.193-1.315-0.29-2.432-0.29h-2.984V248.045z"/>
	<path d="M115.454,242.803c0-2.357,0.633-4.203,1.899-5.537c1.266-1.333,2.9-2.001,4.902-2.001c1.311,0,2.493,0.313,3.546,0.94
		c1.053,0.626,1.855,1.5,2.408,2.621c0.552,1.12,0.829,2.392,0.829,3.813c0,1.44-0.291,2.729-0.872,3.865
		c-0.582,1.137-1.405,1.998-2.471,2.582c-1.066,0.585-2.215,0.877-3.449,0.877c-1.337,0-2.532-0.323-3.585-0.969
		s-1.851-1.527-2.393-2.646C115.726,245.231,115.454,244.05,115.454,242.803z M117.392,242.832c0,1.712,0.46,3.061,1.38,4.045
		c0.921,0.985,2.075,1.478,3.464,1.478c1.415,0,2.579-0.497,3.493-1.492c0.914-0.994,1.371-2.405,1.371-4.233
		c0-1.156-0.195-2.166-0.586-3.028c-0.391-0.862-0.963-1.53-1.715-2.005c-0.752-0.476-1.597-0.713-2.533-0.713
		c-1.331,0-2.476,0.457-3.435,1.371C117.872,239.168,117.392,240.694,117.392,242.832z"/>
	<path d="M136.953,249.721v-14.204h1.928l7.46,11.152v-11.152h1.802v14.204h-1.928l-7.46-11.161v11.161H136.953z"/>
	<path d="M150.731,242.803c0-2.357,0.633-4.203,1.899-5.537c1.266-1.333,2.9-2.001,4.902-2.001c1.311,0,2.493,0.313,3.546,0.94
		c1.053,0.626,1.855,1.5,2.408,2.621c0.552,1.12,0.829,2.392,0.829,3.813c0,1.44-0.291,2.729-0.872,3.865
		c-0.582,1.137-1.405,1.998-2.471,2.582c-1.066,0.585-2.215,0.877-3.449,0.877c-1.337,0-2.532-0.323-3.585-0.969
		s-1.851-1.527-2.393-2.646C151.002,245.231,150.731,244.05,150.731,242.803z M152.669,242.832c0,1.712,0.46,3.061,1.38,4.045
		c0.921,0.985,2.075,1.478,3.464,1.478c1.415,0,2.579-0.497,3.493-1.492c0.914-0.994,1.371-2.405,1.371-4.233
		c0-1.156-0.195-2.166-0.586-3.028c-0.391-0.862-0.963-1.53-1.715-2.005c-0.752-0.476-1.597-0.713-2.533-0.713
		c-1.331,0-2.476,0.457-3.435,1.371C153.148,239.168,152.669,240.694,152.669,242.832z"/>
	<path d="M170.351,249.721v-12.527h-4.68v-1.677h11.258v1.677h-4.699v12.527H170.351z"/>
	<path d="M184.012,249.721v-14.204h4.893c1.104,0,1.947,0.068,2.528,0.204c0.814,0.188,1.508,0.526,2.083,1.018
		c0.749,0.633,1.309,1.441,1.681,2.427s0.557,2.11,0.557,3.376c0,1.079-0.126,2.035-0.378,2.868s-0.575,1.522-0.969,2.068
		s-0.825,0.976-1.293,1.289s-1.033,0.551-1.695,0.712s-1.423,0.242-2.282,0.242H184.012z M185.892,248.045h3.032
		c0.937,0,1.671-0.088,2.204-0.262c0.533-0.175,0.958-0.42,1.274-0.736c0.445-0.446,0.792-1.045,1.042-1.798
		c0.249-0.752,0.373-1.664,0.373-2.736c0-1.486-0.244-2.628-0.731-3.426c-0.488-0.797-1.081-1.332-1.778-1.604
		c-0.504-0.193-1.315-0.29-2.432-0.29h-2.984V248.045z"/>
	<path d="M198.661,249.721v-14.204h1.879v14.204H198.661z"/>
	<path d="M210.501,244.149v-1.666l6.016-0.01v5.271c-0.924,0.736-1.876,1.29-2.857,1.662c-0.982,0.371-1.99,0.557-3.023,0.557
		c-1.395,0-2.662-0.299-3.803-0.896c-1.14-0.597-2-1.461-2.582-2.592c-0.582-1.13-0.872-2.393-0.872-3.788
		c0-1.382,0.289-2.672,0.867-3.87c0.578-1.198,1.41-2.088,2.495-2.67c1.086-0.581,2.335-0.872,3.75-0.872
		c1.027,0,1.955,0.167,2.785,0.499c0.83,0.333,1.48,0.797,1.952,1.391c0.472,0.595,0.83,1.369,1.075,2.325l-1.695,0.465
		c-0.213-0.723-0.479-1.291-0.795-1.705c-0.316-0.413-0.768-0.744-1.355-0.993c-0.588-0.248-1.24-0.373-1.957-0.373
		c-0.859,0-1.603,0.131-2.229,0.393c-0.627,0.262-1.133,0.605-1.517,1.032c-0.384,0.426-0.683,0.895-0.896,1.404
		c-0.362,0.879-0.543,1.831-0.543,2.858c0,1.267,0.218,2.325,0.655,3.178c0.436,0.853,1.07,1.486,1.903,1.899s1.718,0.62,2.655,0.62
		c0.813,0,1.607-0.156,2.383-0.47s1.363-0.647,1.764-1.003v-2.646H210.501z"/>
	<path d="M224.229,242.803c0-2.357,0.633-4.203,1.899-5.537c1.266-1.333,2.899-2.001,4.902-2.001c1.312,0,2.493,0.313,3.546,0.94
		c1.053,0.626,1.855,1.5,2.408,2.621c0.552,1.12,0.828,2.392,0.828,3.813c0,1.44-0.291,2.729-0.872,3.865s-1.405,1.998-2.471,2.582
		c-1.065,0.585-2.216,0.877-3.449,0.877c-1.337,0-2.532-0.323-3.585-0.969s-1.851-1.527-2.393-2.646
		C224.501,245.231,224.229,244.05,224.229,242.803z M226.167,242.832c0,1.712,0.461,3.061,1.381,4.045
		c0.921,0.985,2.075,1.478,3.464,1.478c1.415,0,2.579-0.497,3.493-1.492c0.914-0.994,1.371-2.405,1.371-4.233
		c0-1.156-0.195-2.166-0.586-3.028c-0.392-0.862-0.963-1.53-1.716-2.005c-0.753-0.476-1.597-0.713-2.533-0.713
		c-1.331,0-2.476,0.457-3.435,1.371S226.167,240.694,226.167,242.832z"/>
	<path d="M240.265,249.721v-14.204h6.297c1.267,0,2.229,0.128,2.888,0.383c0.659,0.256,1.186,0.706,1.579,1.352
		c0.395,0.646,0.592,1.36,0.592,2.142c0,1.008-0.326,1.857-0.979,2.548c-0.652,0.691-1.66,1.131-3.023,1.318
		c0.498,0.238,0.875,0.475,1.134,0.707c0.549,0.504,1.069,1.134,1.56,1.889l2.471,3.866h-2.363l-1.881-2.955
		c-0.549-0.853-1-1.505-1.355-1.957s-0.674-0.769-0.955-0.949s-0.566-0.307-0.857-0.378c-0.213-0.045-0.562-0.068-1.046-0.068
		h-2.181v6.308H240.265z M242.144,241.785h4.041c0.859,0,1.531-0.088,2.016-0.266s0.852-0.462,1.104-0.853
		c0.252-0.392,0.379-0.815,0.379-1.274c0-0.672-0.244-1.224-0.732-1.657c-0.488-0.433-1.258-0.648-2.311-0.648h-4.496V241.785z"/>
	<path d="M260.077,249.721v-14.204h4.894c1.104,0,1.947,0.068,2.528,0.204c0.814,0.188,1.508,0.526,2.084,1.018
		c0.748,0.633,1.309,1.441,1.68,2.427c0.372,0.985,0.558,2.11,0.558,3.376c0,1.079-0.126,2.035-0.378,2.868
		s-0.574,1.522-0.969,2.068s-0.825,0.976-1.293,1.289c-0.469,0.313-1.033,0.551-1.695,0.712s-1.424,0.242-2.282,0.242H260.077z
		 M261.958,248.045h3.031c0.938,0,1.672-0.088,2.205-0.262c0.533-0.175,0.957-0.42,1.273-0.736c0.445-0.446,0.793-1.045,1.042-1.798
		c0.249-0.752,0.373-1.664,0.373-2.736c0-1.486-0.244-2.628-0.731-3.426c-0.488-0.797-1.08-1.332-1.777-1.604
		c-0.504-0.193-1.315-0.29-2.433-0.29h-2.983V248.045z"/>
	<path d="M274.437,249.721v-14.204h6.297c1.267,0,2.229,0.128,2.888,0.383c0.659,0.256,1.186,0.706,1.579,1.352
		c0.395,0.646,0.592,1.36,0.592,2.142c0,1.008-0.326,1.857-0.979,2.548c-0.652,0.691-1.66,1.131-3.023,1.318
		c0.498,0.238,0.875,0.475,1.134,0.707c0.549,0.504,1.069,1.134,1.56,1.889l2.471,3.866h-2.363l-1.881-2.955
		c-0.549-0.853-1-1.505-1.355-1.957s-0.674-0.769-0.955-0.949s-0.566-0.307-0.857-0.378c-0.213-0.045-0.562-0.068-1.046-0.068
		h-2.181v6.308H274.437z M276.315,241.785h4.041c0.859,0,1.531-0.088,2.016-0.266s0.852-0.462,1.104-0.853
		c0.252-0.392,0.379-0.815,0.379-1.274c0-0.672-0.244-1.224-0.732-1.657c-0.488-0.433-1.258-0.648-2.311-0.648h-4.496V241.785z"/>
	<path d="M289.057,249.721v-14.204h1.88v14.204H289.057z"/>
	<path d="M294.173,249.721v-14.204h1.879v12.528h6.996v1.676H294.173z"/>
	<path d="M305.208,249.721v-14.204h1.879v12.528h6.996v1.676H305.208z"/>
</g>
</svg>
