<?xml version="1.0" standalone="no"?>
<!DOCTYPE svg PUBLIC "-//W3C//DTD SVG 20010904//EN"
 "http://www.w3.org/TR/2001/REC-SVG-20010904/DTD/svg10.dtd">
<svg version="1.0" xmlns="http://www.w3.org/2000/svg"
 width="520.000000pt" height="520.000000pt" viewBox="0 0 520.000000 520.000000"
 preserveAspectRatio="xMidYMid meet">
<metadata>
Created by potrace 1.14, written by Peter Selinger 2001-2017
</metadata>
<g transform="translate(0.000000,520.000000) scale(0.100000,-0.100000)"
fill="#000000" stroke="none">
<path d="M2545 4970 c-216 -22 -356 -57 -498 -124 -390 -186 -675 -582 -732
-1021 -14 -101 -37 -108 -122 -35 -62 53 -86 59 -132 35 -41 -21 -67 -71 -174
-340 -157 -391 -184 -518 -174 -815 13 -393 85 -689 268 -1097 77 -173 118
-295 150 -444 19 -87 22 -138 23 -314 1 -116 -3 -275 -8 -355 -9 -145 -9 -145
17 -197 26 -50 43 -70 53 -61 7 8 73 296 96 423 17 96 22 160 22 315 1 174 -2
205 -23 284 -32 123 -66 203 -144 339 -128 223 -167 349 -252 817 -25 140 -53
281 -61 314 -8 32 -13 60 -10 63 8 8 23 -29 35 -86 14 -66 25 -81 60 -81 61 0
91 53 91 160 0 39 3 51 10 40 5 -8 10 -26 10 -39 0 -37 60 -206 150 -421 207
-495 277 -731 301 -1014 11 -126 10 -164 -9 -356 -11 -118 -24 -264 -27 -325
-8 -142 -30 -278 -61 -367 -13 -40 -24 -79 -24 -89 0 -24 24 -40 70 -46 36 -5
43 -2 73 29 17 19 45 58 60 86 26 48 29 65 37 205 5 84 19 233 30 332 28 234
37 535 20 658 -15 114 -50 238 -96 340 -37 82 -38 118 -2 140 26 17 89 -22
126 -78 67 -102 202 -392 252 -540 102 -303 209 -452 385 -539 142 -69 327
-65 499 11 138 61 233 131 404 297 l122 119 1 -249 c1 -137 0 -297 -1 -355 -3
-144 15 -179 90 -179 42 0 59 9 75 41 21 40 19 137 -7 276 -28 154 -30 429 -5
541 27 118 65 220 121 328 65 124 227 371 288 438 l44 49 75 -12 c89 -15 120
-7 149 41 11 18 24 57 30 88 6 30 22 80 35 110 13 30 29 76 34 102 15 65 48
148 70 177 l18 24 14 -54 c7 -30 13 -92 13 -139 -1 -158 -49 -256 -251 -511
-209 -262 -280 -380 -318 -524 -23 -85 -34 -372 -28 -688 6 -265 6 -267 27
-261 34 9 70 39 90 73 17 29 19 59 20 344 2 282 4 322 25 417 30 141 78 237
201 405 314 428 409 632 456 980 25 188 9 437 -42 654 -32 134 -87 292 -115
331 -41 56 -70 54 -147 -10 -117 -97 -141 -89 -152 51 -15 183 -107 499 -192
659 -167 313 -500 545 -883 615 -106 20 -417 28 -550 15z m608 -164 c170 -44
307 -127 452 -271 194 -194 333 -467 379 -744 23 -133 18 -484 -5 -446 -4 6
-16 53 -29 105 -80 347 -160 514 -274 572 -48 25 -151 27 -231 5 -49 -13 -50
-14 -25 -27 57 -30 152 -115 198 -178 110 -149 154 -280 186 -555 12 -100 21
-138 51 -206 52 -118 65 -165 72 -261 14 -211 -67 -432 -212 -575 -104 -102
-229 -154 -255 -106 -29 56 4 147 85 232 65 68 70 95 24 133 -37 31 -91 34
-132 8 -60 -40 -93 -104 -293 -564 -137 -317 -162 -471 -128 -803 12 -125
-106 -204 -352 -236 -166 -21 -306 21 -369 110 -29 41 -30 46 -25 129 12 224
-5 351 -66 504 -42 103 -284 580 -315 619 -39 50 -98 73 -149 59 -62 -17 -68
-47 -26 -128 17 -34 21 -78 7 -86 -12 -8 -83 71 -131 146 -96 148 -105 311
-26 465 14 29 53 94 86 144 65 99 89 165 115 319 31 177 72 269 158 346 84 76
180 113 347 134 113 14 140 32 140 91 0 60 -31 88 -113 99 -281 40 -555 -166
-667 -501 l-36 -108 -37 112 c-62 187 -80 286 -80 432 -1 156 15 230 79 360
98 201 325 425 544 534 107 54 192 86 305 116 169 44 263 54 465 51 159 -3
199 -7 283 -30z"/>
<path d="M2445 4400 c-160 -28 -385 -103 -385 -127 0 -19 22 -63 32 -63 5 0
36 11 70 25 347 141 760 137 1130 -10 12 -5 21 2 32 24 9 16 16 34 16 39 0 23
-237 94 -395 118 -126 19 -375 16 -500 -6z"/>
<path d="M3372 3347 c-87 -27 -182 -176 -182 -284 0 -52 28 -124 62 -160 20
-21 20 -23 4 -48 -20 -31 -15 -41 32 -61 62 -26 138 -20 226 18 145 62 200
132 200 253 0 77 -20 130 -68 174 -14 13 -23 28 -20 33 9 15 -18 40 -71 64
-54 26 -125 30 -183 11z"/>
<path d="M2020 3292 c-25 -10 -61 -30 -81 -43 -20 -13 -50 -31 -66 -40 -78
-42 -116 -155 -78 -230 26 -51 133 -149 193 -176 118 -55 273 -17 357 87 38
46 71 168 61 222 -9 49 -91 132 -162 165 -74 34 -163 40 -224 15z"/>
<path d="M2615 2199 c-109 -25 -180 -151 -216 -382 -17 -110 -7 -304 21 -382
44 -125 96 -171 186 -162 230 24 307 205 270 632 -15 169 -24 206 -59 243 -45
49 -126 69 -202 51z"/>
</g>
</svg>
